<svg width="55" height="31" viewBox="0 0 55 31" fill="none" xmlns="http://www.w3.org/2000/svg">
<path d="M7.25781 9.93945L7.07031 10.1738C6.53125 10.8027 5.74219 11.1172 4.70312 11.1172C3.78125 11.1172 3.05664 10.8125 2.5293 10.2031C2.00586 9.58984 1.73828 8.72461 1.72656 7.60742V5.93164C1.72656 4.73633 1.96484 3.8418 2.44141 3.24805C2.92188 2.65039 3.63867 2.35156 4.5918 2.35156C5.4043 2.35156 6.03906 2.57813 6.49609 3.03125C6.95703 3.48437 7.21094 4.13086 7.25781 4.9707H6.18555C6.14258 4.43945 5.99414 4.02539 5.74023 3.72852C5.49023 3.42773 5.10938 3.27734 4.59766 3.27734C3.98438 3.27734 3.53516 3.47852 3.25 3.88086C2.96484 4.2793 2.81641 4.91797 2.80469 5.79688V7.53711C2.80469 8.39648 2.96875 9.05664 3.29688 9.51758C3.625 9.97461 4.0957 10.2031 4.70898 10.2031C5.28711 10.2031 5.72656 10.0625 6.02734 9.78125L6.18555 9.63477V7.66602H4.62695V6.75195H7.25781V9.93945ZM12.9883 8.77344H10.1055L9.44336 11H8.3418L11.0898 2.46875H12.0098L14.7637 11H13.6621L12.9883 8.77344ZM10.3867 7.84766H12.7129L11.5469 3.96875L10.3867 7.84766ZM17.3066 2.46875L19.5332 9.42969L21.7598 2.46875H23.1426V11H22.0703V7.67773L22.1699 4.34961L19.9375 11H19.1172L16.8965 4.37305L16.9961 7.67773V11H15.9238V2.46875H17.3066ZM29.084 7.05664H26.0664V10.0801H29.582V11H24.9941V2.46875H29.5234V3.39453H26.0664V6.13672H29.084V7.05664ZM7.42188 21.4785C7.42188 22.2285 7.32031 22.8633 7.11719 23.3828C6.91797 23.8984 6.63281 24.3008 6.26172 24.5898L7.5332 25.7324L6.80664 26.4414L5.27148 25.041C5.02539 25.0918 4.78711 25.1172 4.55664 25.1172C3.66992 25.1172 2.9707 24.8066 2.45898 24.1855C1.95117 23.5605 1.69141 22.6836 1.67969 21.5547V20.002C1.67969 18.8535 1.93164 17.959 2.43555 17.3184C2.93945 16.6738 3.64258 16.3516 4.54492 16.3516C5.45508 16.3516 6.16016 16.666 6.66016 17.2949C7.16016 17.9199 7.41406 18.8066 7.42188 19.9551V21.4785ZM6.34961 19.9902C6.34961 19.0879 6.20117 18.418 5.9043 17.9805C5.61133 17.5391 5.1582 17.3184 4.54492 17.3184C3.95898 17.3184 3.51367 17.541 3.20898 17.9863C2.9082 18.4316 2.75586 19.0879 2.75195 19.9551V21.4785C2.75195 22.3535 2.90234 23.0195 3.20312 23.4766C3.50781 23.9336 3.95898 24.1621 4.55664 24.1621C5.15039 24.1621 5.59375 23.9551 5.88672 23.541C6.17969 23.127 6.33398 22.4883 6.34961 21.625V19.9902ZM14.2129 16.4688V22.5332C14.2051 23.3418 13.9707 23.9746 13.5098 24.4316C13.0488 24.8887 12.4062 25.1172 11.582 25.1172C10.7383 25.1172 10.0938 24.8945 9.64844 24.4492C9.20312 24 8.97656 23.3613 8.96875 22.5332V16.4688H10.0352V22.4922C10.0352 23.0664 10.1562 23.4961 10.3984 23.7812C10.6445 24.0625 11.0391 24.2031 11.582 24.2031C12.1289 24.2031 12.5234 24.0625 12.7656 23.7812C13.0117 23.4961 13.1348 23.0664 13.1348 22.4922V16.4688H14.2129ZM21.4141 21.4844C21.4141 22.6484 21.166 23.5449 20.6699 24.1738C20.1738 24.8027 19.4688 25.1172 18.5547 25.1172C17.6758 25.1172 16.9805 24.8125 16.4688 24.2031C15.9609 23.5898 15.6973 22.7246 15.6777 21.6074V20.002C15.6777 18.8613 15.9297 17.9688 16.4336 17.3242C16.9375 16.6758 17.6406 16.3516 18.543 16.3516C19.4414 16.3516 20.1406 16.6621 20.6406 17.2832C21.1445 17.9004 21.4023 18.7832 21.4141 19.9316V21.4844ZM20.3418 19.9902C20.3418 19.0879 20.1934 18.418 19.8965 17.9805C19.6035 17.5391 19.1523 17.3184 18.543 17.3184C17.9531 17.3184 17.5059 17.541 17.2012 17.9863C16.9004 18.4316 16.748 19.0879 16.7441 19.9551V21.4844C16.7441 22.3555 16.8945 23.0195 17.1953 23.4766C17.5 23.9336 17.9531 24.1621 18.5547 24.1621C19.1562 24.1621 19.6016 23.9512 19.8906 23.5293C20.1797 23.1074 20.3301 22.4609 20.3418 21.5898V19.9902ZM27.8945 17.3945H25.6504V25H24.5781V17.3945H22.3398V16.4688H27.8945V17.3945ZM33.2441 21.0566H30.2266V24.0801H33.7422V25H29.1543V16.4688H33.6836V17.3945H30.2266V20.1367H33.2441V21.0566Z" fill="white"/>
<path d="M7.25781 9.93945L7.80442 10.3767L7.95781 10.185V9.93945H7.25781ZM7.07031 10.1738L7.60179 10.6294L7.60951 10.6204L7.61692 10.6111L7.07031 10.1738ZM2.5293 10.2031L1.99685 10.6576L1.99998 10.6612L2.5293 10.2031ZM1.72656 7.60742L1.02652 7.60742L1.0266 7.61476L1.72656 7.60742ZM2.44141 3.24805L1.89584 2.80946L1.8955 2.80988L2.44141 3.24805ZM6.49609 3.03125L6.00324 3.52835L6.00537 3.53044L6.49609 3.03125ZM7.25781 4.9707V5.6707H7.99797L7.95672 4.93169L7.25781 4.9707ZM6.18555 4.9707L5.48783 5.02714L5.53988 5.6707H6.18555V4.9707ZM5.74023 3.72852L5.20185 4.176L5.20826 4.18349L5.74023 3.72852ZM3.25 3.88086L3.81924 4.28826L3.82111 4.28563L3.25 3.88086ZM2.80469 5.79688L2.10469 5.78754V5.79688H2.80469ZM3.29688 9.51758L2.7266 9.92353L2.72825 9.92582L3.29688 9.51758ZM6.02734 9.78125L5.55175 9.26761L5.54925 9.26995L6.02734 9.78125ZM6.18555 9.63477L6.66113 10.1484L6.88555 9.94061V9.63477H6.18555ZM6.18555 7.66602H6.88555V6.96602H6.18555V7.66602ZM4.62695 7.66602H3.92695V8.36602H4.62695V7.66602ZM4.62695 6.75195V6.05195H3.92695V6.75195H4.62695ZM7.25781 6.75195H7.95781V6.05195H7.25781V6.75195ZM6.7112 9.50217L6.5237 9.73654L7.61692 10.6111L7.80442 10.3767L6.7112 9.50217ZM6.53883 9.71827C6.16546 10.1539 5.5941 10.4172 4.70312 10.4172V11.8172C5.89028 11.8172 6.89704 11.4516 7.60179 10.6294L6.53883 9.71827ZM4.70312 10.4172C3.95191 10.4172 3.43309 10.1778 3.05861 9.74506L1.99998 10.6612C2.68019 11.4472 3.61059 11.8172 4.70312 11.8172V10.4172ZM3.06173 9.74869C2.6795 9.30084 2.43718 8.61603 2.42652 7.60008L1.0266 7.61476C1.03938 8.83319 1.33222 9.87884 1.99686 10.6576L3.06173 9.74869ZM2.42656 7.60742V5.93164H1.02656V7.60742H2.42656ZM2.42656 5.93164C2.42656 4.81021 2.65331 4.10234 2.98731 3.68621L1.8955 2.80988C1.27638 3.58125 1.02656 4.66245 1.02656 5.93164H2.42656ZM2.98697 3.68664C3.30278 3.2938 3.79419 3.05156 4.5918 3.05156V1.65156C3.48315 1.65156 2.54097 2.00698 1.89584 2.80946L2.98697 3.68664ZM4.5918 3.05156C5.27063 3.05156 5.70953 3.23713 6.00325 3.52834L6.98894 2.53416C6.3686 1.91912 5.53796 1.65156 4.5918 1.65156V3.05156ZM6.00537 3.53044C6.30832 3.82825 6.51873 4.28997 6.5589 5.00971L7.95672 4.93169C7.90315 3.97175 7.60574 3.1405 6.98682 2.53206L6.00537 3.53044ZM7.25781 4.2707H6.18555V5.6707H7.25781V4.2707ZM6.88327 4.91427C6.83266 4.28857 6.65133 3.71682 6.27221 3.27354L5.20826 4.18349C5.33695 4.33396 5.4525 4.59034 5.48783 5.02714L6.88327 4.91427ZM6.27856 3.28107C5.8571 2.77401 5.24865 2.57734 4.59766 2.57734V3.97734C4.9701 3.97734 5.12337 4.08146 5.20191 4.17596L6.27856 3.28107ZM4.59766 2.57734C3.81947 2.57734 3.12749 2.84313 2.67889 3.47609L3.82111 4.28563C3.94282 4.1139 4.14928 3.97734 4.59766 3.97734V2.57734ZM2.68076 3.47346C2.26905 4.04874 2.11705 4.86486 2.10475 5.78754L3.50463 5.80621C3.51576 4.97108 3.66064 4.50986 3.81924 4.28825L2.68076 3.47346ZM2.10469 5.79688V7.53711H3.50469V5.79688H2.10469ZM2.10469 7.53711C2.10469 8.47101 2.28061 9.29701 2.72661 9.92353L3.86714 9.11163C3.65689 8.81627 3.50469 8.32196 3.50469 7.53711H2.10469ZM2.72825 9.92582C3.2011 10.5844 3.89392 10.9031 4.70898 10.9031V9.50313C4.29749 9.50313 4.0489 9.36479 3.8655 9.10933L2.72825 9.92582ZM4.70898 10.9031C5.39266 10.9031 6.03056 10.7366 6.50544 10.2925L5.54925 9.26995C5.42257 9.38841 5.18155 9.50313 4.70898 9.50313V10.9031ZM6.50293 10.2949L6.66113 10.1484L5.70996 9.12113L5.55176 9.26762L6.50293 10.2949ZM6.88555 9.63477V7.66602H5.48555V9.63477H6.88555ZM6.18555 6.96602H4.62695V8.36602H6.18555V6.96602ZM5.32695 7.66602V6.75195H3.92695V7.66602H5.32695ZM4.62695 7.45195H7.25781V6.05195H4.62695V7.45195ZM6.55781 6.75195V9.93945H7.95781V6.75195H6.55781ZM12.9883 8.77344L13.6583 8.57068L13.5078 8.07344H12.9883V8.77344ZM10.1055 8.77344V8.07344H9.58333L9.43451 8.57391L10.1055 8.77344ZM9.44336 11V11.7H9.9655L10.1143 11.1995L9.44336 11ZM8.3418 11L7.67551 10.7854L7.3809 11.7H8.3418V11ZM11.0898 2.46875V1.76875H10.5799L10.4236 2.25413L11.0898 2.46875ZM12.0098 2.46875L12.6759 2.25371L12.5194 1.76875H12.0098V2.46875ZM14.7637 11V11.7H15.7252L15.4298 10.785L14.7637 11ZM13.6621 11L12.9921 11.2028L13.1426 11.7H13.6621V11ZM10.3867 7.84766L9.71607 7.64707L9.44671 8.54766H10.3867V7.84766ZM12.7129 7.84766V8.54766H13.6543L13.3833 7.64614L12.7129 7.84766ZM11.5469 3.96875L12.2172 3.76723L11.5452 1.53155L10.8762 3.76816L11.5469 3.96875ZM12.9883 8.07344H10.1055V9.47344H12.9883V8.07344ZM9.43451 8.57391L8.7724 10.8005L10.1143 11.1995L10.7764 8.97296L9.43451 8.57391ZM9.44336 10.3H8.3418V11.7H9.44336V10.3ZM9.00808 11.2146L11.7561 2.68337L10.4236 2.25413L7.67551 10.7854L9.00808 11.2146ZM11.0898 3.16875H12.0098V1.76875H11.0898V3.16875ZM11.3436 2.68379L14.0975 11.215L15.4298 10.785L12.6759 2.25371L11.3436 2.68379ZM14.7637 10.3H13.6621V11.7H14.7637V10.3ZM14.3321 10.7972L13.6583 8.57068L12.3183 8.9762L12.9921 11.2028L14.3321 10.7972ZM10.3867 8.54766H12.7129V7.14766H10.3867V8.54766ZM13.3833 7.64614L12.2172 3.76723L10.8765 4.17027L12.0425 8.04917L13.3833 7.64614ZM10.8762 3.76816L9.71607 7.64707L11.0574 8.04824L12.2175 4.16934L10.8762 3.76816ZM17.3066 2.46875L17.9734 2.25549L17.8177 1.76875H17.3066V2.46875ZM19.5332 9.42969L18.8665 9.64295L19.5332 11.7273L20.1999 9.64295L19.5332 9.42969ZM21.7598 2.46875V1.76875H21.2487L21.093 2.25549L21.7598 2.46875ZM23.1426 2.46875H23.8426V1.76875H23.1426V2.46875ZM23.1426 11V11.7H23.8426V11H23.1426ZM22.0703 11H21.3703V11.7H22.0703V11ZM22.0703 7.67773L21.3706 7.65679L21.3703 7.66726V7.67773H22.0703ZM22.1699 4.34961L22.8696 4.37055L21.5063 4.12685L22.1699 4.34961ZM19.9375 11V11.7H20.4409L20.6011 11.2228L19.9375 11ZM19.1172 11L18.4535 11.2224L18.6135 11.7H19.1172V11ZM16.8965 4.37305L17.5602 4.15063L16.1968 4.39414L16.8965 4.37305ZM16.9961 7.67773H17.6961V7.66719L17.6958 7.65664L16.9961 7.67773ZM16.9961 11V11.7H17.6961V11H16.9961ZM15.9238 11H15.2238V11.7H15.9238V11ZM15.9238 2.46875V1.76875H15.2238V2.46875H15.9238ZM16.6399 2.68201L18.8665 9.64295L20.1999 9.21643L17.9734 2.25549L16.6399 2.68201ZM20.1999 9.64295L22.4265 2.68201L21.093 2.25549L18.8665 9.21643L20.1999 9.64295ZM21.7598 3.16875H23.1426V1.76875H21.7598V3.16875ZM22.4426 2.46875V11H23.8426V2.46875H22.4426ZM23.1426 10.3H22.0703V11.7H23.1426V10.3ZM22.7703 11V7.67773H21.3703V11H22.7703ZM22.77 7.69868L22.8696 4.37055L21.4702 4.32867L21.3706 7.65679L22.77 7.69868ZM21.5063 4.12685L19.2739 10.7772L20.6011 11.2228L22.8335 4.57237L21.5063 4.12685ZM19.9375 10.3H19.1172V11.7H19.9375V10.3ZM19.7809 10.7776L17.5602 4.15063L16.2328 4.59546L18.4535 11.2224L19.7809 10.7776ZM16.1968 4.39414L16.2964 7.69882L17.6958 7.65664L17.5962 4.35196L16.1968 4.39414ZM16.2961 7.67773V11H17.6961V7.67773H16.2961ZM16.9961 10.3H15.9238V11.7H16.9961V10.3ZM16.6238 11V2.46875H15.2238V11H16.6238ZM15.9238 3.16875H17.3066V1.76875H15.9238V3.16875ZM29.084 7.05664V7.75664H29.784V7.05664H29.084ZM26.0664 7.05664V6.35664H25.3664V7.05664H26.0664ZM26.0664 10.0801H25.3664V10.7801H26.0664V10.0801ZM29.582 10.0801H30.282V9.38008H29.582V10.0801ZM29.582 11V11.7H30.282V11H29.582ZM24.9941 11H24.2941V11.7H24.9941V11ZM24.9941 2.46875V1.76875H24.2941V2.46875H24.9941ZM29.5234 2.46875H30.2234V1.76875H29.5234V2.46875ZM29.5234 3.39453V4.09453H30.2234V3.39453H29.5234ZM26.0664 3.39453V2.69453H25.3664V3.39453H26.0664ZM26.0664 6.13672H25.3664V6.83672H26.0664V6.13672ZM29.084 6.13672H29.784V5.43672H29.084V6.13672ZM29.084 6.35664H26.0664V7.75664H29.084V6.35664ZM25.3664 7.05664V10.0801H26.7664V7.05664H25.3664ZM26.0664 10.7801H29.582V9.38008H26.0664V10.7801ZM28.882 10.0801V11H30.282V10.0801H28.882ZM29.582 10.3H24.9941V11.7H29.582V10.3ZM25.6941 11V2.46875H24.2941V11H25.6941ZM24.9941 3.16875H29.5234V1.76875H24.9941V3.16875ZM28.8234 2.46875V3.39453H30.2234V2.46875H28.8234ZM29.5234 2.69453H26.0664V4.09453H29.5234V2.69453ZM25.3664 3.39453V6.13672H26.7664V3.39453H25.3664ZM26.0664 6.83672H29.084V5.43672H26.0664V6.83672ZM28.384 6.13672V7.05664H29.784V6.13672H28.384ZM7.11719 23.3828L6.46524 23.1279L6.46423 23.1305L7.11719 23.3828ZM6.26172 24.5898L5.83156 24.0376L5.1718 24.5515L5.79384 25.1105L6.26172 24.5898ZM7.5332 25.7324L8.02208 26.2334L8.55707 25.7114L8.00108 25.2118L7.5332 25.7324ZM6.80664 26.4414L6.33489 26.9586L6.82282 27.4037L7.29552 26.9424L6.80664 26.4414ZM5.27148 25.041L5.74324 24.5239L5.47956 24.2833L5.13002 24.3555L5.27148 25.041ZM2.45898 24.1855L1.91569 24.627L1.91873 24.6307L2.45898 24.1855ZM1.67969 21.5547L0.97965 21.5547L0.979725 21.562L1.67969 21.5547ZM2.43555 17.3184L2.98574 17.7511L2.98701 17.7495L2.43555 17.3184ZM6.66016 17.2949L6.11222 17.7305L6.11355 17.7322L6.66016 17.2949ZM7.42188 19.9551H8.12189L8.12186 19.9503L7.42188 19.9551ZM5.9043 17.9805L5.32104 18.3676L5.32506 18.3735L5.9043 17.9805ZM3.20898 17.9863L2.63126 17.591L2.62891 17.5945L3.20898 17.9863ZM2.75195 19.9551L2.05195 19.9519V19.9551H2.75195ZM3.20312 23.4766L2.61838 23.8614L2.62069 23.8649L3.20312 23.4766ZM6.34961 21.625L7.04961 21.6377V21.625H6.34961ZM6.72188 21.4785C6.72188 22.1695 6.62774 22.7123 6.46525 23.1279L7.76913 23.6377C8.01289 23.0142 8.12187 22.2875 8.12187 21.4785H6.72188ZM6.46423 23.1305C6.30263 23.5488 6.08623 23.8392 5.83156 24.0376L6.69188 25.1421C7.17939 24.7623 7.5333 24.2481 7.77015 23.6351L6.46423 23.1305ZM5.79384 25.1105L7.06533 26.2531L8.00108 25.2118L6.7296 24.0692L5.79384 25.1105ZM7.04433 25.2314L6.31776 25.9404L7.29552 26.9424L8.02208 26.2334L7.04433 25.2314ZM7.2784 25.9243L5.74324 24.5239L4.79973 25.5582L6.33489 26.9586L7.2784 25.9243ZM5.13002 24.3555C4.92633 24.3975 4.73554 24.4172 4.55664 24.4172V25.8172C4.83868 25.8172 5.12445 25.7861 5.41295 25.7266L5.13002 24.3555ZM4.55664 24.4172C3.85488 24.4172 3.36335 24.1824 2.99924 23.7404L1.91873 24.6307C2.57806 25.4309 3.48497 25.8172 4.55664 25.8172V24.4172ZM3.00226 23.7441C2.62759 23.283 2.39037 22.5805 2.37965 21.5474L0.979725 21.562C0.992438 22.7866 1.27476 23.8381 1.9157 24.627L3.00226 23.7441ZM2.37969 21.5547V20.002H0.979688V21.5547H2.37969ZM2.37969 20.002C2.37969 18.9476 2.61167 18.2267 2.98574 17.7511L1.88536 16.8856C1.25161 17.6913 0.979688 18.7594 0.979688 20.002H2.37969ZM2.98701 17.7495C3.34337 17.2937 3.8326 17.0516 4.54492 17.0516V15.6516C3.45256 15.6516 2.53554 16.054 1.88408 16.8872L2.98701 17.7495ZM4.54492 17.0516C5.27378 17.0516 5.76379 17.2923 6.11222 17.7305L7.20809 16.8593C6.55652 16.0398 5.63638 15.6516 4.54492 15.6516V17.0516ZM6.11355 17.7322C6.48051 18.1909 6.7147 18.9022 6.72189 19.9598L8.12186 19.9503C8.11343 18.7111 7.83981 17.6489 7.20676 16.8576L6.11355 17.7322ZM6.72188 19.9551V21.4785H8.12187V19.9551H6.72188ZM7.04961 19.9902C7.04961 19.036 6.89723 18.1971 6.48353 17.5874L5.32506 18.3735C5.50512 18.6389 5.64961 19.1398 5.64961 19.9902H7.04961ZM6.48752 17.5934C6.04275 16.9232 5.34977 16.6184 4.54492 16.6184V18.0184C4.96664 18.0184 5.17991 18.1549 5.32107 18.3676L6.48752 17.5934ZM4.54492 16.6184C3.75132 16.6184 3.07911 16.9365 2.63127 17.591L3.7867 18.3816C3.94823 18.1455 4.16665 18.0184 4.54492 18.0184V16.6184ZM2.62891 17.5945C2.2163 18.2054 2.05614 19.0237 2.05196 19.9519L3.45195 19.9582C3.45558 19.1521 3.60011 18.6579 3.78906 18.3781L2.62891 17.5945ZM2.05195 19.9551V21.4785H3.45195V19.9551H2.05195ZM2.05195 21.4785C2.05195 22.4154 2.20976 23.2405 2.61839 23.8614L3.78786 23.0917C3.59492 22.7986 3.45195 22.2916 3.45195 21.4785H2.05195ZM2.62069 23.8649C3.06817 24.5361 3.74933 24.8621 4.55664 24.8621V23.4621C4.16864 23.4621 3.94745 23.3311 3.78556 23.0883L2.62069 23.8649ZM4.55664 24.8621C5.33319 24.8621 6.01027 24.5783 6.45815 23.9453L5.31529 23.1367C5.17723 23.3318 4.9676 23.4621 4.55664 23.4621V24.8621ZM6.45815 23.9453C6.87145 23.3612 7.03292 22.5534 7.04949 21.6377L5.64972 21.6123C5.63505 22.4232 5.48793 22.8927 5.31529 23.1367L6.45815 23.9453ZM7.04961 21.625V19.9902H5.64961V21.625H7.04961ZM14.2129 16.4688H14.9129V15.7688H14.2129V16.4688ZM14.2129 22.5332L14.9129 22.54V22.5332H14.2129ZM9.64844 24.4492L9.1513 24.942L9.15346 24.9442L9.64844 24.4492ZM8.96875 22.5332L8.26872 22.5332L8.26878 22.5398L8.96875 22.5332ZM8.96875 16.4688V15.7688H8.26875V16.4688H8.96875ZM10.0352 16.4688H10.7352V15.7688H10.0352V16.4688ZM10.3984 23.7812L9.86484 24.2344L9.87163 24.2422L10.3984 23.7812ZM12.7656 23.7812L12.2357 23.3239L12.2352 23.3245L12.7656 23.7812ZM13.1348 16.4688V15.7688H12.4348V16.4688H13.1348ZM13.5129 16.4688V22.5332H14.9129V16.4688H13.5129ZM13.5129 22.5264C13.5064 23.1985 13.3165 23.6375 13.0169 23.9346L14.0026 24.9287C14.6249 24.3117 14.9037 23.4851 14.9129 22.54L13.5129 22.5264ZM13.0169 23.9346C12.72 24.2289 12.2739 24.4172 11.582 24.4172V25.8172C12.5386 25.8172 13.3776 25.5484 14.0026 24.9287L13.0169 23.9346ZM11.582 24.4172C10.8589 24.4172 10.4177 24.2285 10.1434 23.9542L9.15346 24.9442C9.76983 25.5606 10.6177 25.8172 11.582 25.8172V24.4172ZM10.1456 23.9564C9.86454 23.6729 9.67536 23.2308 9.66872 22.5266L8.26878 22.5398C8.27776 23.4919 8.54171 24.3271 9.15131 24.942L10.1456 23.9564ZM9.66875 22.5332V16.4688H8.26875V22.5332H9.66875ZM8.96875 17.1687H10.0352V15.7688H8.96875V17.1687ZM9.33516 16.4688V22.4922H10.7352V16.4688H9.33516ZM9.33516 22.4922C9.33516 23.1475 9.47075 23.7703 9.8649 24.2344L10.932 23.3281C10.8418 23.2219 10.7352 22.9853 10.7352 22.4922H9.33516ZM9.87163 24.2422C10.3018 24.7338 10.9307 24.9031 11.582 24.9031V23.5031C11.1475 23.5031 10.9873 23.3912 10.9252 23.3203L9.87163 24.2422ZM11.582 24.9031C12.2343 24.9031 12.8679 24.7352 13.2961 24.238L12.2352 23.3245C12.179 23.3898 12.0235 23.5031 11.582 23.5031V24.9031ZM13.2956 24.2386C13.6963 23.7743 13.8348 23.1497 13.8348 22.4922H12.4348C12.4348 22.9831 12.3272 23.2179 12.2357 23.3239L13.2956 24.2386ZM13.8348 22.4922V16.4688H12.4348V22.4922H13.8348ZM13.1348 17.1687H14.2129V15.7688H13.1348V17.1687ZM16.4688 24.2031L15.9296 24.6496L15.9327 24.6533L16.4688 24.2031ZM15.6777 21.6074H14.9776L14.9778 21.6197L15.6777 21.6074ZM16.4336 17.3242L16.9851 17.7554L16.9863 17.7537L16.4336 17.3242ZM20.6406 17.2832L20.0953 17.7222L20.0984 17.7259L20.6406 17.2832ZM21.4141 19.9316L22.1141 19.9316L22.114 19.9245L21.4141 19.9316ZM19.8965 17.9805L19.3132 18.3676L19.3173 18.3735L19.8965 17.9805ZM17.2012 17.9863L16.6234 17.591L16.6211 17.5945L17.2012 17.9863ZM16.7441 19.9551L16.0441 19.9519V19.9551H16.7441ZM17.1953 23.4766L16.6106 23.8614L16.6129 23.8649L17.1953 23.4766ZM20.3418 21.5898L21.0418 21.5993V21.5898H20.3418ZM20.7141 21.4844C20.7141 22.5602 20.4835 23.2799 20.1203 23.7403L21.2195 24.6074C21.8486 23.8099 22.1141 22.7367 22.1141 21.4844H20.7141ZM20.1203 23.7403C19.7768 24.1758 19.2886 24.4172 18.5547 24.4172V25.8172C19.6489 25.8172 20.5708 25.4297 21.2195 24.6074L20.1203 23.7403ZM18.5547 24.4172C17.8582 24.4172 17.3686 24.1862 17.0048 23.753L15.9327 24.6533C16.5924 25.4388 17.4934 25.8172 18.5547 25.8172V24.4172ZM17.0079 23.7567C16.6353 23.3067 16.3955 22.6165 16.3776 21.5952L14.9778 21.6197C14.999 22.8327 15.2866 23.873 15.9296 24.6496L17.0079 23.7567ZM16.3777 21.6074V20.002H14.9777V21.6074H16.3777ZM16.3777 20.002C16.3777 18.9571 16.609 18.2364 16.9851 17.7554L15.8821 16.8931C15.2504 17.7011 14.9777 18.7656 14.9777 20.002H16.3777ZM16.9863 17.7537C17.3433 17.2944 17.8322 17.0516 18.543 17.0516V15.6516C17.449 15.6516 16.5317 16.0572 15.8809 16.8947L16.9863 17.7537ZM18.543 17.0516C19.2599 17.0516 19.7462 17.2884 20.0954 17.7222L21.1859 16.8442C20.5351 16.0358 19.6229 15.6516 18.543 15.6516V17.0516ZM20.0984 17.7259C20.4658 18.1759 20.7033 18.881 20.7141 19.9388L22.114 19.9245C22.1014 18.6854 21.8233 17.6249 21.1829 16.8405L20.0984 17.7259ZM20.7141 19.9316V21.4844H22.1141V19.9316H20.7141ZM21.0418 19.9902C21.0418 19.036 20.8894 18.1971 20.4757 17.5874L19.3173 18.3735C19.4973 18.6389 19.6418 19.1398 19.6418 19.9902H21.0418ZM20.4797 17.5934C20.0359 16.9246 19.3458 16.6184 18.543 16.6184V18.0184C18.9588 18.0184 19.1712 18.1535 19.3133 18.3676L20.4797 17.5934ZM18.543 16.6184C17.7474 16.6184 17.0723 16.9351 16.6235 17.591L17.7789 18.3816C17.9394 18.147 18.1589 18.0184 18.543 18.0184V16.6184ZM16.6211 17.5945C16.2085 18.2054 16.0483 19.0237 16.0441 19.9519L17.4441 19.9582C17.4478 19.1521 17.5923 18.6579 17.7812 18.3781L16.6211 17.5945ZM16.0441 19.9551V21.4844H17.4441V19.9551H16.0441ZM16.0441 21.4844C16.0441 22.4182 16.2022 23.2409 16.6106 23.8614L17.78 23.0917C17.5869 22.7982 17.4441 22.2928 17.4441 21.4844H16.0441ZM16.6129 23.8649C17.0613 24.5375 17.7454 24.8621 18.5547 24.8621V23.4621C18.1609 23.4621 17.9387 23.3296 17.7777 23.0883L16.6129 23.8649ZM18.5547 24.8621C19.3403 24.8621 20.0241 24.5729 20.4681 23.925L19.3132 23.1336C19.179 23.3294 18.9722 23.4621 18.5547 23.4621V24.8621ZM20.4681 23.925C20.8728 23.3343 21.0293 22.522 21.0417 21.5993L19.6419 21.5804C19.6308 22.3999 19.4866 22.8805 19.3132 23.1336L20.4681 23.925ZM21.0418 21.5898V19.9902H19.6418V21.5898H21.0418ZM27.8945 17.3945V18.0945H28.5945V17.3945H27.8945ZM25.6504 17.3945V16.6945H24.9504V17.3945H25.6504ZM25.6504 25V25.7H26.3504V25H25.6504ZM24.5781 25H23.8781V25.7H24.5781V25ZM24.5781 17.3945H25.2781V16.6945H24.5781V17.3945ZM22.3398 17.3945H21.6398V18.0945H22.3398V17.3945ZM22.3398 16.4688V15.7688H21.6398V16.4688H22.3398ZM27.8945 16.4688H28.5945V15.7688H27.8945V16.4688ZM27.8945 16.6945H25.6504V18.0945H27.8945V16.6945ZM24.9504 17.3945V25H26.3504V17.3945H24.9504ZM25.6504 24.3H24.5781V25.7H25.6504V24.3ZM25.2781 25V17.3945H23.8781V25H25.2781ZM24.5781 16.6945H22.3398V18.0945H24.5781V16.6945ZM23.0398 17.3945V16.4688H21.6398V17.3945H23.0398ZM22.3398 17.1687H27.8945V15.7688H22.3398V17.1687ZM27.1945 16.4688V17.3945H28.5945V16.4688H27.1945ZM33.2441 21.0566V21.7566H33.9441V21.0566H33.2441ZM30.2266 21.0566V20.3566H29.5266V21.0566H30.2266ZM30.2266 24.0801H29.5266V24.7801H30.2266V24.0801ZM33.7422 24.0801H34.4422V23.3801H33.7422V24.0801ZM33.7422 25V25.7H34.4422V25H33.7422ZM29.1543 25H28.4543V25.7H29.1543V25ZM29.1543 16.4688V15.7688H28.4543V16.4688H29.1543ZM33.6836 16.4688H34.3836V15.7688H33.6836V16.4688ZM33.6836 17.3945V18.0945H34.3836V17.3945H33.6836ZM30.2266 17.3945V16.6945H29.5266V17.3945H30.2266ZM30.2266 20.1367H29.5266V20.8367H30.2266V20.1367ZM33.2441 20.1367H33.9441V19.4367H33.2441V20.1367ZM33.2441 20.3566H30.2266V21.7566H33.2441V20.3566ZM29.5266 21.0566V24.0801H30.9266V21.0566H29.5266ZM30.2266 24.7801H33.7422V23.3801H30.2266V24.7801ZM33.0422 24.0801V25H34.4422V24.0801H33.0422ZM33.7422 24.3H29.1543V25.7H33.7422V24.3ZM29.8543 25V16.4688H28.4543V25H29.8543ZM29.1543 17.1687H33.6836V15.7688H29.1543V17.1687ZM32.9836 16.4688V17.3945H34.3836V16.4688H32.9836ZM33.6836 16.6945H30.2266V18.0945H33.6836V16.6945ZM29.5266 17.3945V20.1367H30.9266V17.3945H29.5266ZM30.2266 20.8367H33.2441V19.4367H30.2266V20.8367ZM32.5441 20.1367V21.0566H33.9441V20.1367H32.5441Z" fill="white"/>
<path d="M7.25781 12.9395L7.07031 13.1738C6.53125 13.8027 5.74219 14.1172 4.70312 14.1172C3.78125 14.1172 3.05664 13.8125 2.5293 13.2031C2.00586 12.5898 1.73828 11.7246 1.72656 10.6074V8.93164C1.72656 7.73633 1.96484 6.8418 2.44141 6.24805C2.92188 5.65039 3.63867 5.35156 4.5918 5.35156C5.4043 5.35156 6.03906 5.57812 6.49609 6.03125C6.95703 6.48438 7.21094 7.13086 7.25781 7.9707H6.18555C6.14258 7.43945 5.99414 7.02539 5.74023 6.72852C5.49023 6.42773 5.10938 6.27734 4.59766 6.27734C3.98438 6.27734 3.53516 6.47852 3.25 6.88086C2.96484 7.2793 2.81641 7.91797 2.80469 8.79688V10.5371C2.80469 11.3965 2.96875 12.0566 3.29688 12.5176C3.625 12.9746 4.0957 13.2031 4.70898 13.2031C5.28711 13.2031 5.72656 13.0625 6.02734 12.7812L6.18555 12.6348V10.666H4.62695V9.75195H7.25781V12.9395ZM12.9883 11.7734H10.1055L9.44336 14H8.3418L11.0898 5.46875H12.0098L14.7637 14H13.6621L12.9883 11.7734ZM10.3867 10.8477H12.7129L11.5469 6.96875L10.3867 10.8477ZM17.3066 5.46875L19.5332 12.4297L21.7598 5.46875H23.1426V14H22.0703V10.6777L22.1699 7.34961L19.9375 14H19.1172L16.8965 7.37305L16.9961 10.6777V14H15.9238V5.46875H17.3066ZM29.084 10.0566H26.0664V13.0801H29.582V14H24.9941V5.46875H29.5234V6.39453H26.0664V9.13672H29.084V10.0566ZM7.42188 24.4785C7.42188 25.2285 7.32031 25.8633 7.11719 26.3828C6.91797 26.8984 6.63281 27.3008 6.26172 27.5898L7.5332 28.7324L6.80664 29.4414L5.27148 28.041C5.02539 28.0918 4.78711 28.1172 4.55664 28.1172C3.66992 28.1172 2.9707 27.8066 2.45898 27.1855C1.95117 26.5605 1.69141 25.6836 1.67969 24.5547V23.002C1.67969 21.8535 1.93164 20.959 2.43555 20.3184C2.93945 19.6738 3.64258 19.3516 4.54492 19.3516C5.45508 19.3516 6.16016 19.666 6.66016 20.2949C7.16016 20.9199 7.41406 21.8066 7.42188 22.9551V24.4785ZM6.34961 22.9902C6.34961 22.0879 6.20117 21.418 5.9043 20.9805C5.61133 20.5391 5.1582 20.3184 4.54492 20.3184C3.95898 20.3184 3.51367 20.541 3.20898 20.9863C2.9082 21.4316 2.75586 22.0879 2.75195 22.9551V24.4785C2.75195 25.3535 2.90234 26.0195 3.20312 26.4766C3.50781 26.9336 3.95898 27.1621 4.55664 27.1621C5.15039 27.1621 5.59375 26.9551 5.88672 26.541C6.17969 26.127 6.33398 25.4883 6.34961 24.625V22.9902ZM14.2129 19.4688V25.5332C14.2051 26.3418 13.9707 26.9746 13.5098 27.4316C13.0488 27.8887 12.4062 28.1172 11.582 28.1172C10.7383 28.1172 10.0938 27.8945 9.64844 27.4492C9.20312 27 8.97656 26.3613 8.96875 25.5332V19.4688H10.0352V25.4922C10.0352 26.0664 10.1562 26.4961 10.3984 26.7812C10.6445 27.0625 11.0391 27.2031 11.582 27.2031C12.1289 27.2031 12.5234 27.0625 12.7656 26.7812C13.0117 26.4961 13.1348 26.0664 13.1348 25.4922V19.4688H14.2129ZM21.4141 24.4844C21.4141 25.6484 21.166 26.5449 20.6699 27.1738C20.1738 27.8027 19.4688 28.1172 18.5547 28.1172C17.6758 28.1172 16.9805 27.8125 16.4688 27.2031C15.9609 26.5898 15.6973 25.7246 15.6777 24.6074V23.002C15.6777 21.8613 15.9297 20.9688 16.4336 20.3242C16.9375 19.6758 17.6406 19.3516 18.543 19.3516C19.4414 19.3516 20.1406 19.6621 20.6406 20.2832C21.1445 20.9004 21.4023 21.7832 21.4141 22.9316V24.4844ZM20.3418 22.9902C20.3418 22.0879 20.1934 21.418 19.8965 20.9805C19.6035 20.5391 19.1523 20.3184 18.543 20.3184C17.9531 20.3184 17.5059 20.541 17.2012 20.9863C16.9004 21.4316 16.748 22.0879 16.7441 22.9551V24.4844C16.7441 25.3555 16.8945 26.0195 17.1953 26.4766C17.5 26.9336 17.9531 27.1621 18.5547 27.1621C19.1562 27.1621 19.6016 26.9512 19.8906 26.5293C20.1797 26.1074 20.3301 25.4609 20.3418 24.5898V22.9902ZM27.8945 20.3945H25.6504V28H24.5781V20.3945H22.3398V19.4688H27.8945V20.3945ZM33.2441 24.0566H30.2266V27.0801H33.7422V28H29.1543V19.4688H33.6836V20.3945H30.2266V23.1367H33.2441V24.0566Z" fill="#F2C94C"/>
<path d="M7.25781 12.9395L7.80442 13.3767L7.95781 13.185V12.9395H7.25781ZM7.07031 13.1738L7.60179 13.6294L7.60951 13.6204L7.61692 13.6111L7.07031 13.1738ZM2.5293 13.2031L1.99685 13.6576L1.99998 13.6612L2.5293 13.2031ZM1.72656 10.6074L1.02652 10.6074L1.0266 10.6148L1.72656 10.6074ZM2.44141 6.24805L1.89584 5.80946L1.8955 5.80988L2.44141 6.24805ZM6.49609 6.03125L6.00324 6.52835L6.00537 6.53044L6.49609 6.03125ZM7.25781 7.9707V8.6707H7.99797L7.95672 7.93169L7.25781 7.9707ZM6.18555 7.9707L5.48783 8.02714L5.53988 8.6707H6.18555V7.9707ZM5.74023 6.72852L5.20185 7.176L5.20826 7.18349L5.74023 6.72852ZM3.25 6.88086L3.81924 7.28826L3.82111 7.28563L3.25 6.88086ZM2.80469 8.79688L2.10469 8.78754V8.79688H2.80469ZM3.29688 12.5176L2.7266 12.9235L2.72825 12.9258L3.29688 12.5176ZM6.02734 12.7812L5.55175 12.2676L5.54925 12.27L6.02734 12.7812ZM6.18555 12.6348L6.66113 13.1484L6.88555 12.9406V12.6348H6.18555ZM6.18555 10.666H6.88555V9.96602H6.18555V10.666ZM4.62695 10.666H3.92695V11.366H4.62695V10.666ZM4.62695 9.75195V9.05195H3.92695V9.75195H4.62695ZM7.25781 9.75195H7.95781V9.05195H7.25781V9.75195ZM6.7112 12.5022L6.5237 12.7365L7.61692 13.6111L7.80442 13.3767L6.7112 12.5022ZM6.53883 12.7183C6.16546 13.1539 5.5941 13.4172 4.70312 13.4172V14.8172C5.89028 14.8172 6.89704 14.4516 7.60179 13.6294L6.53883 12.7183ZM4.70312 13.4172C3.95191 13.4172 3.43309 13.1778 3.05861 12.7451L1.99998 13.6612C2.68019 14.4472 3.61059 14.8172 4.70312 14.8172V13.4172ZM3.06173 12.7487C2.6795 12.3008 2.43718 11.616 2.42652 10.6001L1.0266 10.6148C1.03938 11.8332 1.33222 12.8788 1.99686 13.6576L3.06173 12.7487ZM2.42656 10.6074V8.93164H1.02656V10.6074H2.42656ZM2.42656 8.93164C2.42656 7.81021 2.65331 7.10234 2.98731 6.68621L1.8955 5.80988C1.27638 6.58125 1.02656 7.66245 1.02656 8.93164H2.42656ZM2.98697 6.68664C3.30278 6.2938 3.79419 6.05156 4.5918 6.05156V4.65156C3.48315 4.65156 2.54097 5.00698 1.89584 5.80946L2.98697 6.68664ZM4.5918 6.05156C5.27063 6.05156 5.70953 6.23713 6.00325 6.52834L6.98894 5.53416C6.3686 4.91912 5.53796 4.65156 4.5918 4.65156V6.05156ZM6.00537 6.53044C6.30832 6.82825 6.51873 7.28997 6.5589 8.00971L7.95672 7.93169C7.90315 6.97175 7.60574 6.1405 6.98682 5.53206L6.00537 6.53044ZM7.25781 7.2707H6.18555V8.6707H7.25781V7.2707ZM6.88327 7.91427C6.83266 7.28857 6.65133 6.71682 6.27221 6.27354L5.20826 7.18349C5.33695 7.33396 5.4525 7.59034 5.48783 8.02714L6.88327 7.91427ZM6.27856 6.28107C5.8571 5.77401 5.24865 5.57734 4.59766 5.57734V6.97734C4.9701 6.97734 5.12337 7.08146 5.20191 7.17596L6.27856 6.28107ZM4.59766 5.57734C3.81947 5.57734 3.12749 5.84313 2.67889 6.47609L3.82111 7.28563C3.94282 7.1139 4.14928 6.97734 4.59766 6.97734V5.57734ZM2.68076 6.47346C2.26905 7.04874 2.11705 7.86486 2.10475 8.78754L3.50463 8.80621C3.51576 7.97108 3.66064 7.50986 3.81924 7.28825L2.68076 6.47346ZM2.10469 8.79688V10.5371H3.50469V8.79688H2.10469ZM2.10469 10.5371C2.10469 11.471 2.28061 12.297 2.72661 12.9235L3.86714 12.1116C3.65689 11.8163 3.50469 11.322 3.50469 10.5371H2.10469ZM2.72825 12.9258C3.2011 13.5844 3.89392 13.9031 4.70898 13.9031V12.5031C4.29749 12.5031 4.0489 12.3648 3.8655 12.1093L2.72825 12.9258ZM4.70898 13.9031C5.39266 13.9031 6.03056 13.7366 6.50544 13.2925L5.54925 12.27C5.42257 12.3884 5.18155 12.5031 4.70898 12.5031V13.9031ZM6.50293 13.2949L6.66113 13.1484L5.70996 12.1211L5.55176 12.2676L6.50293 13.2949ZM6.88555 12.6348V10.666H5.48555V12.6348H6.88555ZM6.18555 9.96602H4.62695V11.366H6.18555V9.96602ZM5.32695 10.666V9.75195H3.92695V10.666H5.32695ZM4.62695 10.452H7.25781V9.05195H4.62695V10.452ZM6.55781 9.75195V12.9395H7.95781V9.75195H6.55781ZM12.9883 11.7734L13.6583 11.5707L13.5078 11.0734H12.9883V11.7734ZM10.1055 11.7734V11.0734H9.58333L9.43451 11.5739L10.1055 11.7734ZM9.44336 14V14.7H9.9655L10.1143 14.1995L9.44336 14ZM8.3418 14L7.67551 13.7854L7.3809 14.7H8.3418V14ZM11.0898 5.46875V4.76875H10.5799L10.4236 5.25413L11.0898 5.46875ZM12.0098 5.46875L12.6759 5.25371L12.5194 4.76875H12.0098V5.46875ZM14.7637 14V14.7H15.7252L15.4298 13.785L14.7637 14ZM13.6621 14L12.9921 14.2028L13.1426 14.7H13.6621V14ZM10.3867 10.8477L9.71607 10.6471L9.44671 11.5477H10.3867V10.8477ZM12.7129 10.8477V11.5477H13.6543L13.3833 10.6461L12.7129 10.8477ZM11.5469 6.96875L12.2172 6.76723L11.5452 4.53155L10.8762 6.76816L11.5469 6.96875ZM12.9883 11.0734H10.1055V12.4734H12.9883V11.0734ZM9.43451 11.5739L8.7724 13.8005L10.1143 14.1995L10.7764 11.973L9.43451 11.5739ZM9.44336 13.3H8.3418V14.7H9.44336V13.3ZM9.00808 14.2146L11.7561 5.68337L10.4236 5.25413L7.67551 13.7854L9.00808 14.2146ZM11.0898 6.16875H12.0098V4.76875H11.0898V6.16875ZM11.3436 5.68379L14.0975 14.215L15.4298 13.785L12.6759 5.25371L11.3436 5.68379ZM14.7637 13.3H13.6621V14.7H14.7637V13.3ZM14.3321 13.7972L13.6583 11.5707L12.3183 11.9762L12.9921 14.2028L14.3321 13.7972ZM10.3867 11.5477H12.7129V10.1477H10.3867V11.5477ZM13.3833 10.6461L12.2172 6.76723L10.8765 7.17027L12.0425 11.0492L13.3833 10.6461ZM10.8762 6.76816L9.71607 10.6471L11.0574 11.0482L12.2175 7.16934L10.8762 6.76816ZM17.3066 5.46875L17.9734 5.25549L17.8177 4.76875H17.3066V5.46875ZM19.5332 12.4297L18.8665 12.6429L19.5332 14.7273L20.1999 12.6429L19.5332 12.4297ZM21.7598 5.46875V4.76875H21.2487L21.093 5.25549L21.7598 5.46875ZM23.1426 5.46875H23.8426V4.76875H23.1426V5.46875ZM23.1426 14V14.7H23.8426V14H23.1426ZM22.0703 14H21.3703V14.7H22.0703V14ZM22.0703 10.6777L21.3706 10.6568L21.3703 10.6673V10.6777H22.0703ZM22.1699 7.34961L22.8696 7.37055L21.5063 7.12685L22.1699 7.34961ZM19.9375 14V14.7H20.4409L20.6011 14.2228L19.9375 14ZM19.1172 14L18.4535 14.2224L18.6135 14.7H19.1172V14ZM16.8965 7.37305L17.5602 7.15063L16.1968 7.39414L16.8965 7.37305ZM16.9961 10.6777H17.6961V10.6672L17.6958 10.6566L16.9961 10.6777ZM16.9961 14V14.7H17.6961V14H16.9961ZM15.9238 14H15.2238V14.7H15.9238V14ZM15.9238 5.46875V4.76875H15.2238V5.46875H15.9238ZM16.6399 5.68201L18.8665 12.6429L20.1999 12.2164L17.9734 5.25549L16.6399 5.68201ZM20.1999 12.6429L22.4265 5.68201L21.093 5.25549L18.8665 12.2164L20.1999 12.6429ZM21.7598 6.16875H23.1426V4.76875H21.7598V6.16875ZM22.4426 5.46875V14H23.8426V5.46875H22.4426ZM23.1426 13.3H22.0703V14.7H23.1426V13.3ZM22.7703 14V10.6777H21.3703V14H22.7703ZM22.77 10.6987L22.8696 7.37055L21.4702 7.32867L21.3706 10.6568L22.77 10.6987ZM21.5063 7.12685L19.2739 13.7772L20.6011 14.2228L22.8335 7.57237L21.5063 7.12685ZM19.9375 13.3H19.1172V14.7H19.9375V13.3ZM19.7809 13.7776L17.5602 7.15063L16.2328 7.59546L18.4535 14.2224L19.7809 13.7776ZM16.1968 7.39414L16.2964 10.6988L17.6958 10.6566L17.5962 7.35196L16.1968 7.39414ZM16.2961 10.6777V14H17.6961V10.6777H16.2961ZM16.9961 13.3H15.9238V14.7H16.9961V13.3ZM16.6238 14V5.46875H15.2238V14H16.6238ZM15.9238 6.16875H17.3066V4.76875H15.9238V6.16875ZM29.084 10.0566V10.7566H29.784V10.0566H29.084ZM26.0664 10.0566V9.35664H25.3664V10.0566H26.0664ZM26.0664 13.0801H25.3664V13.7801H26.0664V13.0801ZM29.582 13.0801H30.282V12.3801H29.582V13.0801ZM29.582 14V14.7H30.282V14H29.582ZM24.9941 14H24.2941V14.7H24.9941V14ZM24.9941 5.46875V4.76875H24.2941V5.46875H24.9941ZM29.5234 5.46875H30.2234V4.76875H29.5234V5.46875ZM29.5234 6.39453V7.09453H30.2234V6.39453H29.5234ZM26.0664 6.39453V5.69453H25.3664V6.39453H26.0664ZM26.0664 9.13672H25.3664V9.83672H26.0664V9.13672ZM29.084 9.13672H29.784V8.43672H29.084V9.13672ZM29.084 9.35664H26.0664V10.7566H29.084V9.35664ZM25.3664 10.0566V13.0801H26.7664V10.0566H25.3664ZM26.0664 13.7801H29.582V12.3801H26.0664V13.7801ZM28.882 13.0801V14H30.282V13.0801H28.882ZM29.582 13.3H24.9941V14.7H29.582V13.3ZM25.6941 14V5.46875H24.2941V14H25.6941ZM24.9941 6.16875H29.5234V4.76875H24.9941V6.16875ZM28.8234 5.46875V6.39453H30.2234V5.46875H28.8234ZM29.5234 5.69453H26.0664V7.09453H29.5234V5.69453ZM25.3664 6.39453V9.13672H26.7664V6.39453H25.3664ZM26.0664 9.83672H29.084V8.43672H26.0664V9.83672ZM28.384 9.13672V10.0566H29.784V9.13672H28.384ZM7.11719 26.3828L6.46524 26.1279L6.46423 26.1305L7.11719 26.3828ZM6.26172 27.5898L5.83156 27.0376L5.1718 27.5515L5.79384 28.1105L6.26172 27.5898ZM7.5332 28.7324L8.02208 29.2334L8.55707 28.7114L8.00108 28.2118L7.5332 28.7324ZM6.80664 29.4414L6.33489 29.9586L6.82282 30.4037L7.29552 29.9424L6.80664 29.4414ZM5.27148 28.041L5.74324 27.5239L5.47956 27.2833L5.13002 27.3555L5.27148 28.041ZM2.45898 27.1855L1.91569 27.627L1.91873 27.6307L2.45898 27.1855ZM1.67969 24.5547L0.97965 24.5547L0.979725 24.562L1.67969 24.5547ZM2.43555 20.3184L2.98574 20.7511L2.98701 20.7495L2.43555 20.3184ZM6.66016 20.2949L6.11222 20.7305L6.11355 20.7322L6.66016 20.2949ZM7.42188 22.9551H8.12189L8.12186 22.9503L7.42188 22.9551ZM5.9043 20.9805L5.32104 21.3676L5.32506 21.3735L5.9043 20.9805ZM3.20898 20.9863L2.63126 20.591L2.62891 20.5945L3.20898 20.9863ZM2.75195 22.9551L2.05195 22.9519V22.9551H2.75195ZM3.20312 26.4766L2.61838 26.8614L2.62069 26.8649L3.20312 26.4766ZM6.34961 24.625L7.04961 24.6377V24.625H6.34961ZM6.72188 24.4785C6.72188 25.1695 6.62774 25.7123 6.46525 26.1279L7.76913 26.6377C8.01289 26.0142 8.12187 25.2875 8.12187 24.4785H6.72188ZM6.46423 26.1305C6.30263 26.5488 6.08623 26.8392 5.83156 27.0376L6.69188 28.1421C7.17939 27.7623 7.5333 27.2481 7.77015 26.6351L6.46423 26.1305ZM5.79384 28.1105L7.06533 29.2531L8.00108 28.2118L6.7296 27.0692L5.79384 28.1105ZM7.04433 28.2314L6.31776 28.9404L7.29552 29.9424L8.02208 29.2334L7.04433 28.2314ZM7.2784 28.9243L5.74324 27.5239L4.79973 28.5582L6.33489 29.9586L7.2784 28.9243ZM5.13002 27.3555C4.92633 27.3975 4.73554 27.4172 4.55664 27.4172V28.8172C4.83868 28.8172 5.12445 28.7861 5.41295 28.7266L5.13002 27.3555ZM4.55664 27.4172C3.85488 27.4172 3.36335 27.1824 2.99924 26.7404L1.91873 27.6307C2.57806 28.4309 3.48497 28.8172 4.55664 28.8172V27.4172ZM3.00226 26.7441C2.62759 26.283 2.39037 25.5805 2.37965 24.5474L0.979725 24.562C0.992438 25.7866 1.27476 26.8381 1.9157 27.627L3.00226 26.7441ZM2.37969 24.5547V23.002H0.979688V24.5547H2.37969ZM2.37969 23.002C2.37969 21.9476 2.61167 21.2267 2.98574 20.7511L1.88536 19.8856C1.25161 20.6913 0.979688 21.7594 0.979688 23.002H2.37969ZM2.98701 20.7495C3.34337 20.2937 3.8326 20.0516 4.54492 20.0516V18.6516C3.45256 18.6516 2.53554 19.054 1.88408 19.8872L2.98701 20.7495ZM4.54492 20.0516C5.27378 20.0516 5.76379 20.2923 6.11222 20.7305L7.20809 19.8593C6.55652 19.0398 5.63638 18.6516 4.54492 18.6516V20.0516ZM6.11355 20.7322C6.48051 21.1909 6.7147 21.9022 6.72189 22.9598L8.12186 22.9503C8.11343 21.7111 7.83981 20.6489 7.20676 19.8576L6.11355 20.7322ZM6.72188 22.9551V24.4785H8.12187V22.9551H6.72188ZM7.04961 22.9902C7.04961 22.036 6.89723 21.1971 6.48353 20.5874L5.32506 21.3735C5.50512 21.6389 5.64961 22.1398 5.64961 22.9902H7.04961ZM6.48752 20.5934C6.04275 19.9232 5.34977 19.6184 4.54492 19.6184V21.0184C4.96664 21.0184 5.17991 21.1549 5.32107 21.3676L6.48752 20.5934ZM4.54492 19.6184C3.75132 19.6184 3.07911 19.9365 2.63127 20.591L3.7867 21.3816C3.94823 21.1455 4.16665 21.0184 4.54492 21.0184V19.6184ZM2.62891 20.5945C2.2163 21.2054 2.05614 22.0237 2.05196 22.9519L3.45195 22.9582C3.45558 22.1521 3.60011 21.6579 3.78906 21.3781L2.62891 20.5945ZM2.05195 22.9551V24.4785H3.45195V22.9551H2.05195ZM2.05195 24.4785C2.05195 25.4154 2.20976 26.2405 2.61839 26.8614L3.78786 26.0917C3.59492 25.7986 3.45195 25.2916 3.45195 24.4785H2.05195ZM2.62069 26.8649C3.06817 27.5361 3.74933 27.8621 4.55664 27.8621V26.4621C4.16864 26.4621 3.94745 26.3311 3.78556 26.0883L2.62069 26.8649ZM4.55664 27.8621C5.33319 27.8621 6.01027 27.5783 6.45815 26.9453L5.31529 26.1367C5.17723 26.3318 4.9676 26.4621 4.55664 26.4621V27.8621ZM6.45815 26.9453C6.87145 26.3612 7.03292 25.5534 7.04949 24.6377L5.64972 24.6123C5.63505 25.4232 5.48793 25.8927 5.31529 26.1367L6.45815 26.9453ZM7.04961 24.625V22.9902H5.64961V24.625H7.04961ZM14.2129 19.4688H14.9129V18.7688H14.2129V19.4688ZM14.2129 25.5332L14.9129 25.54V25.5332H14.2129ZM9.64844 27.4492L9.1513 27.942L9.15346 27.9442L9.64844 27.4492ZM8.96875 25.5332L8.26872 25.5332L8.26878 25.5398L8.96875 25.5332ZM8.96875 19.4688V18.7688H8.26875V19.4688H8.96875ZM10.0352 19.4688H10.7352V18.7688H10.0352V19.4688ZM10.3984 26.7812L9.86484 27.2344L9.87163 27.2422L10.3984 26.7812ZM12.7656 26.7812L12.2357 26.3239L12.2352 26.3245L12.7656 26.7812ZM13.1348 19.4688V18.7688H12.4348V19.4688H13.1348ZM13.5129 19.4688V25.5332H14.9129V19.4688H13.5129ZM13.5129 25.5264C13.5064 26.1985 13.3165 26.6375 13.0169 26.9346L14.0026 27.9287C14.6249 27.3117 14.9037 26.4851 14.9129 25.54L13.5129 25.5264ZM13.0169 26.9346C12.72 27.2289 12.2739 27.4172 11.582 27.4172V28.8172C12.5386 28.8172 13.3776 28.5484 14.0026 27.9287L13.0169 26.9346ZM11.582 27.4172C10.8589 27.4172 10.4177 27.2285 10.1434 26.9542L9.15346 27.9442C9.76983 28.5606 10.6177 28.8172 11.582 28.8172V27.4172ZM10.1456 26.9564C9.86454 26.6729 9.67536 26.2308 9.66872 25.5266L8.26878 25.5398C8.27776 26.4919 8.54171 27.3271 9.15131 27.942L10.1456 26.9564ZM9.66875 25.5332V19.4688H8.26875V25.5332H9.66875ZM8.96875 20.1687H10.0352V18.7688H8.96875V20.1687ZM9.33516 19.4688V25.4922H10.7352V19.4688H9.33516ZM9.33516 25.4922C9.33516 26.1475 9.47075 26.7703 9.8649 27.2344L10.932 26.3281C10.8418 26.2219 10.7352 25.9853 10.7352 25.4922H9.33516ZM9.87163 27.2422C10.3018 27.7338 10.9307 27.9031 11.582 27.9031V26.5031C11.1475 26.5031 10.9873 26.3912 10.9252 26.3203L9.87163 27.2422ZM11.582 27.9031C12.2343 27.9031 12.8679 27.7352 13.2961 27.238L12.2352 26.3245C12.179 26.3898 12.0235 26.5031 11.582 26.5031V27.9031ZM13.2956 27.2386C13.6963 26.7743 13.8348 26.1497 13.8348 25.4922H12.4348C12.4348 25.9831 12.3272 26.2179 12.2357 26.3239L13.2956 27.2386ZM13.8348 25.4922V19.4688H12.4348V25.4922H13.8348ZM13.1348 20.1687H14.2129V18.7688H13.1348V20.1687ZM16.4688 27.2031L15.9296 27.6496L15.9327 27.6533L16.4688 27.2031ZM15.6777 24.6074H14.9776L14.9778 24.6197L15.6777 24.6074ZM16.4336 20.3242L16.9851 20.7554L16.9863 20.7537L16.4336 20.3242ZM20.6406 20.2832L20.0953 20.7222L20.0984 20.7259L20.6406 20.2832ZM21.4141 22.9316L22.1141 22.9316L22.114 22.9245L21.4141 22.9316ZM19.8965 20.9805L19.3132 21.3676L19.3173 21.3735L19.8965 20.9805ZM17.2012 20.9863L16.6234 20.591L16.6211 20.5945L17.2012 20.9863ZM16.7441 22.9551L16.0441 22.9519V22.9551H16.7441ZM17.1953 26.4766L16.6106 26.8614L16.6129 26.8649L17.1953 26.4766ZM20.3418 24.5898L21.0418 24.5993V24.5898H20.3418ZM20.7141 24.4844C20.7141 25.5602 20.4835 26.2799 20.1203 26.7403L21.2195 27.6074C21.8486 26.8099 22.1141 25.7367 22.1141 24.4844H20.7141ZM20.1203 26.7403C19.7768 27.1758 19.2886 27.4172 18.5547 27.4172V28.8172C19.6489 28.8172 20.5708 28.4297 21.2195 27.6074L20.1203 26.7403ZM18.5547 27.4172C17.8582 27.4172 17.3686 27.1862 17.0048 26.753L15.9327 27.6533C16.5924 28.4388 17.4934 28.8172 18.5547 28.8172V27.4172ZM17.0079 26.7567C16.6353 26.3067 16.3955 25.6165 16.3776 24.5952L14.9778 24.6197C14.999 25.8327 15.2866 26.873 15.9296 27.6496L17.0079 26.7567ZM16.3777 24.6074V23.002H14.9777V24.6074H16.3777ZM16.3777 23.002C16.3777 21.9571 16.609 21.2364 16.9851 20.7554L15.8821 19.8931C15.2504 20.7011 14.9777 21.7656 14.9777 23.002H16.3777ZM16.9863 20.7537C17.3433 20.2944 17.8322 20.0516 18.543 20.0516V18.6516C17.449 18.6516 16.5317 19.0572 15.8809 19.8947L16.9863 20.7537ZM18.543 20.0516C19.2599 20.0516 19.7462 20.2884 20.0954 20.7222L21.1859 19.8442C20.5351 19.0358 19.6229 18.6516 18.543 18.6516V20.0516ZM20.0984 20.7259C20.4658 21.1759 20.7033 21.881 20.7141 22.9388L22.114 22.9245C22.1014 21.6854 21.8233 20.6249 21.1829 19.8405L20.0984 20.7259ZM20.7141 22.9316V24.4844H22.1141V22.9316H20.7141ZM21.0418 22.9902C21.0418 22.036 20.8894 21.1971 20.4757 20.5874L19.3173 21.3735C19.4973 21.6389 19.6418 22.1398 19.6418 22.9902H21.0418ZM20.4797 20.5934C20.0359 19.9246 19.3458 19.6184 18.543 19.6184V21.0184C18.9588 21.0184 19.1712 21.1535 19.3133 21.3676L20.4797 20.5934ZM18.543 19.6184C17.7474 19.6184 17.0723 19.9351 16.6235 20.591L17.7789 21.3816C17.9394 21.147 18.1589 21.0184 18.543 21.0184V19.6184ZM16.6211 20.5945C16.2085 21.2054 16.0483 22.0237 16.0441 22.9519L17.4441 22.9582C17.4478 22.1521 17.5923 21.6579 17.7812 21.3781L16.6211 20.5945ZM16.0441 22.9551V24.4844H17.4441V22.9551H16.0441ZM16.0441 24.4844C16.0441 25.4182 16.2022 26.2409 16.6106 26.8614L17.78 26.0917C17.5869 25.7982 17.4441 25.2928 17.4441 24.4844H16.0441ZM16.6129 26.8649C17.0613 27.5375 17.7454 27.8621 18.5547 27.8621V26.4621C18.1609 26.4621 17.9387 26.3296 17.7777 26.0883L16.6129 26.8649ZM18.5547 27.8621C19.3403 27.8621 20.0241 27.5729 20.4681 26.925L19.3132 26.1336C19.179 26.3294 18.9722 26.4621 18.5547 26.4621V27.8621ZM20.4681 26.925C20.8728 26.3343 21.0293 25.522 21.0417 24.5993L19.6419 24.5804C19.6308 25.3999 19.4866 25.8805 19.3132 26.1336L20.4681 26.925ZM21.0418 24.5898V22.9902H19.6418V24.5898H21.0418ZM27.8945 20.3945V21.0945H28.5945V20.3945H27.8945ZM25.6504 20.3945V19.6945H24.9504V20.3945H25.6504ZM25.6504 28V28.7H26.3504V28H25.6504ZM24.5781 28H23.8781V28.7H24.5781V28ZM24.5781 20.3945H25.2781V19.6945H24.5781V20.3945ZM22.3398 20.3945H21.6398V21.0945H22.3398V20.3945ZM22.3398 19.4688V18.7688H21.6398V19.4688H22.3398ZM27.8945 19.4688H28.5945V18.7688H27.8945V19.4688ZM27.8945 19.6945H25.6504V21.0945H27.8945V19.6945ZM24.9504 20.3945V28H26.3504V20.3945H24.9504ZM25.6504 27.3H24.5781V28.7H25.6504V27.3ZM25.2781 28V20.3945H23.8781V28H25.2781ZM24.5781 19.6945H22.3398V21.0945H24.5781V19.6945ZM23.0398 20.3945V19.4688H21.6398V20.3945H23.0398ZM22.3398 20.1687H27.8945V18.7688H22.3398V20.1687ZM27.1945 19.4688V20.3945H28.5945V19.4688H27.1945ZM33.2441 24.0566V24.7566H33.9441V24.0566H33.2441ZM30.2266 24.0566V23.3566H29.5266V24.0566H30.2266ZM30.2266 27.0801H29.5266V27.7801H30.2266V27.0801ZM33.7422 27.0801H34.4422V26.3801H33.7422V27.0801ZM33.7422 28V28.7H34.4422V28H33.7422ZM29.1543 28H28.4543V28.7H29.1543V28ZM29.1543 19.4688V18.7688H28.4543V19.4688H29.1543ZM33.6836 19.4688H34.3836V18.7688H33.6836V19.4688ZM33.6836 20.3945V21.0945H34.3836V20.3945H33.6836ZM30.2266 20.3945V19.6945H29.5266V20.3945H30.2266ZM30.2266 23.1367H29.5266V23.8367H30.2266V23.1367ZM33.2441 23.1367H33.9441V22.4367H33.2441V23.1367ZM33.2441 23.3566H30.2266V24.7566H33.2441V23.3566ZM29.5266 24.0566V27.0801H30.9266V24.0566H29.5266ZM30.2266 27.7801H33.7422V26.3801H30.2266V27.7801ZM33.0422 27.0801V28H34.4422V27.0801H33.0422ZM33.7422 27.3H29.1543V28.7H33.7422V27.3ZM29.8543 28V19.4688H28.4543V28H29.8543ZM29.1543 20.1687H33.6836V18.7688H29.1543V20.1687ZM32.9836 19.4688V20.3945H34.3836V19.4688H32.9836ZM33.6836 19.6945H30.2266V21.0945H33.6836V19.6945ZM29.5266 20.3945V23.1367H30.9266V20.3945H29.5266ZM30.2266 23.8367H33.2441V22.4367H30.2266V23.8367ZM32.5441 23.1367V24.0566H33.9441V23.1367H32.5441Z" fill="#F2C94C"/>
</svg>
